<svg id="Capa_1" enable-background="new 0 0 331.378 331.378" height="512" viewBox="0 0 331.378 331.378" width="512" xmlns="http://www.w3.org/2000/svg"><g><path d="m9.138 140.02h314.575v156.517h-314.575z" fill="#d5d6db"/><path d="m0 135.237h331.378v21.788h-331.378z" fill="#e56353"/><path d="m83.414 43.041h166.023v253.497h-166.023z" fill="#ebf0f3"/><path d="m73.068 34.84h186.716v19.976h-186.716z" fill="#e56353"/><path d="m271.984 177.477h27.722v27.722h-27.722z" fill="#27a2db"/><g fill="#ebf0f3" opacity=".25"><path d="m295.904 177.477-23.92 23.92v-1.685l22.235-22.235z"/><path d="m299.706 177.835v5.128l-22.234 22.235h-5.093z"/></g><path d="m271.984 225.649h27.722v27.722h-27.722z" fill="#27a2db"/><g fill="#ebf0f3" opacity=".25"><path d="m295.904 225.649-23.92 23.92v-1.685l22.235-22.235z"/><path d="m299.706 226.008v5.128l-22.234 22.235h-5.093z"/></g><path d="m34.956 177.477h27.722v27.722h-27.722z" fill="#27a2db"/><g fill="#ebf0f3" opacity=".25"><path d="m58.876 177.477-23.92 23.92v-1.685l22.235-22.235z"/><path d="m62.678 177.835v5.128l-22.235 22.235h-5.093z"/></g><path d="m34.956 225.649h27.722v27.722h-27.722z" fill="#27a2db"/><g fill="#ebf0f3" opacity=".25"><path d="m58.876 225.649-23.92 23.92v-1.685l22.235-22.235z"/><path d="m62.678 226.008v5.128l-22.235 22.235h-5.093z"/></g><path d="m111.369 125.668h27.722v27.722h-27.722z" fill="#27a2db"/><g fill="#ebf0f3" opacity=".25"><path d="m135.289 125.668-23.92 23.92v-1.685l22.235-22.235z"/><path d="m139.091 126.027v5.128l-22.235 22.235h-5.093z"/></g><path d="m111.369 173.841h27.722v27.722h-27.722z" fill="#27a2db"/><g fill="#ebf0f3" opacity=".25"><path d="m135.289 173.841-23.92 23.92v-1.685l22.235-22.235z"/><path d="m139.091 174.2v5.128l-22.235 22.235h-5.093z"/></g><path d="m152.565 125.668h27.722v27.722h-27.722z" fill="#27a2db"/><g fill="#ebf0f3" opacity=".25"><path d="m176.485 125.668-23.92 23.92v-1.685l22.235-22.235z"/><path d="m180.287 126.027v5.128l-22.234 22.235h-5.093z"/></g><path d="m152.565 173.841h27.722v27.722h-27.722z" fill="#27a2db"/><g fill="#ebf0f3" opacity=".25"><path d="m176.485 173.841-23.92 23.92v-1.685l22.235-22.235z"/><path d="m180.287 174.2v5.128l-22.234 22.235h-5.093z"/></g><path d="m193.761 125.668h27.722v27.722h-27.722z" fill="#27a2db"/><g fill="#ebf0f3" opacity=".25"><path d="m217.681 125.668-23.92 23.92v-1.685l22.235-22.235z"/><path d="m221.482 126.027v5.128l-22.234 22.235h-5.093z"/></g><path d="m193.761 173.841h27.722v27.722h-27.722z" fill="#27a2db"/><g fill="#ebf0f3" opacity=".25"><path d="m217.681 173.841-23.92 23.92v-1.685l22.235-22.235z"/><path d="m221.482 174.2v5.128l-22.234 22.235h-5.093z"/></g><path d="m129.867 228.059h73.117v68.478h-73.117z" fill="#474c5b"/><path d="m183.897 79.716h-12.258v-12.258h-10.426v12.258h-12.258v10.426h12.258v12.258h10.426v-12.258h12.258z" fill="#e56353"/></g></svg>